<svg width="24" height="24" viewBox="0 0 24 24" fill="none" xmlns="http://www.w3.org/2000/svg">
<path d="M6.49609 13.0078C8.62403 13.0078 9.67995 13.0081 10.3359 13.6641C10.9919 14.3201 10.9922 15.376 10.9922 17.5039C10.9922 19.6318 10.9918 20.6877 10.3359 21.3438C9.67995 21.9997 8.62403 22 6.49609 22C4.36809 22 3.31225 21.9998 2.65625 21.3438C2.00025 20.6877 2 19.6319 2 17.5039C2 15.376 2.00026 14.3201 2.65625 13.6641C3.31226 13.0082 4.3682 13.0078 6.49609 13.0078ZM17.5039 13.0078C19.6318 13.0078 20.6877 13.0082 21.3438 13.6641C21.9997 14.3201 22 15.376 22 17.5039C22 19.6319 21.9998 20.6877 21.3438 21.3438C20.6877 21.9998 19.6319 22 17.5039 22C15.376 22 14.3201 21.9997 13.6641 21.3438C13.0082 20.6877 13.0078 19.6318 13.0078 17.5039C13.0078 15.376 13.0081 14.3201 13.6641 13.6641C14.3201 13.0081 15.376 13.0078 17.5039 13.0078ZM6.49609 2C8.62403 2 9.67995 2.00026 10.3359 2.65625C10.9918 3.31226 10.9922 4.36819 10.9922 6.49609C10.9922 8.62403 10.9919 9.67995 10.3359 10.3359C9.67995 10.9919 8.62403 10.9922 6.49609 10.9922C4.36819 10.9922 3.31226 10.9918 2.65625 10.3359C2.00026 9.67995 2 8.62403 2 6.49609C2 4.38409 2.00025 3.31225 2.65625 2.65625C3.31225 2.00025 4.36809 2 6.49609 2ZM17.5039 2C19.6319 2 20.6877 2.00025 21.3438 2.65625C21.9998 3.31225 22 4.36809 22 6.49609C22 8.62403 21.9997 9.67995 21.3438 10.3359C20.6877 10.9918 19.6318 10.9922 17.5039 10.9922C15.376 10.9922 14.3201 10.9919 13.6641 10.3359C13.0081 9.67995 13.0078 8.62403 13.0078 6.49609C13.0078 4.3682 13.0082 3.31226 13.6641 2.65625C14.3201 2.00026 15.376 2 17.5039 2Z" fill="white"/>
</svg>
