<svg width="1440" height="1024" viewBox="0 0 1440 1024" fill="none" xmlns="http://www.w3.org/2000/svg">
<g clip-path="url(#clip0_248_36396)">
<rect width="1440" height="1024" fill="#F1F5F9"/>
<g opacity="0.4">
<path d="M389.325 -108.187C396.538 -96.7905 402.086 -84.1546 408.97 -72.4211C424.625 -45.7404 452.713 -4.88977 483.07 4.55176C512.577 13.7311 538.313 2.74814 567.05 0.231851C583.789 -1.23563 584.463 1.03892 598.298 7.38966C618.646 16.7283 642.325 10.8156 662.962 5.44554C697.071 -3.42984 726.183 -13.6632 742.172 -48.2531C750.436 -66.1354 758.652 -111.655 786.858 -87.3382C797.154 -78.4646 798.596 -67.4141 804.625 -56.2646C812.188 -42.2838 826.833 -36.6884 835.413 -23.2142C843.776 -10.0792 844.025 6.61788 848.868 21.2049C869.709 83.9561 947.998 59.4617 997.344 73.8534C1035.41 84.9571 1085.27 106.058 1125.27 97.5594C1143.99 93.5783 1151.92 76.8096 1167.59 67.1782C1187.67 54.8351 1209.63 57.0392 1229.74 47.5383C1243.17 41.1908 1265.79 21.1219 1279.56 37.2231C1289.31 48.6172 1285.29 69.1285 1276.88 80.2529C1273.82 84.2956 1268.54 87.3293 1267.8 93.1098C1266.54 102.852 1276.32 109.812 1271.25 122.529C1267.94 130.866 1245.36 150.501 1237.94 158.516C1173.7 227.853 1130.23 306.894 1149.85 405.835C1162.88 471.544 1233.51 492.619 1289.87 504.91C1401.99 529.363 1487.13 512.528 1585.91 457.5C1610.77 443.649 1622.49 436.376 1634.6 408.982C1641.76 392.77 1642.68 379.946 1663.19 375.989C1680.18 372.715 1694.48 376.147 1713.22 370.745C1751.85 359.613 1769.8 339.753 1798.93 315.145C1811.09 304.87 1812.99 308.688 1827.21 307.577C1846.97 306.037 1842.79 289.89 1844.81 274.899C1845.1 272.81 1845.52 269.894 1847.18 268.537C1849.94 267.316 1854.89 281.094 1856.23 283.583C1857.87 286.597 1859.89 289.484 1862.05 292.128C1862.55 292.373 1862.54 292.636 1862.03 292.913C1862.58 293.685 1862.56 294.501 1861.97 295.266C1857.38 293.899 1849.59 272.228 1848.26 272.161C1847.44 272.12 1847.09 274.029 1846.99 274.819C1845.95 282.907 1846.71 299.983 1840.37 305.563C1832.02 312.917 1816.46 307.294 1806.97 311.682C1777.13 339.419 1745.1 367.324 1704.02 375.405C1689.45 378.273 1673.17 375.024 1659.49 379.277C1642.84 384.451 1641.71 399.212 1635.27 412.924C1623.31 438.407 1612.37 445.242 1588.97 458.371C1496.74 510.112 1414.95 529.981 1308.91 511.031C1255.04 501.404 1168.49 479.825 1150.62 418.865C1122.31 322.25 1167.92 233.201 1230.08 163.804C1241.18 151.417 1255.45 139.476 1265.76 127.115C1276.34 114.412 1266.96 108.667 1265.67 96.526C1264.57 86.2736 1274.68 81.1517 1278.84 72.6959C1283.91 62.3613 1285.68 47.696 1277.58 38.371C1266.08 25.1208 1245.1 42.2115 1233.86 47.9232C1213.45 58.2913 1191.04 56.4912 1171.13 67.7517C1148.41 80.6047 1146.85 98.1207 1116.57 101.133C1071.41 105.628 1030.55 83.3593 988.712 73.7678C941.834 63.0211 867.592 83.817 847.266 23.5206C841.805 7.32379 841.819 -11.2343 831.274 -25.338C824.628 -34.224 813.735 -39.719 807.164 -47.9908C797.116 -60.637 797.094 -78.2542 782.126 -88.1202C767.449 -97.7938 760.902 -87.3337 754.935 -74.8371C743.724 -51.355 742.667 -34.5005 720.661 -16.5305C698.729 1.3748 638.523 17.5777 610.857 13.6552C598.369 11.885 589.574 2.4667 577.754 1.95442C557.657 1.08346 533.704 9.81047 512.646 10.4522C463.268 11.9613 438.382 -23.2467 413.466 -60.6728L389.209 -103.485L389.325 -108.191L389.325 -108.187Z" fill="#DDE4EE"/>
<path d="M346.571 -80.7962C360.485 -64.6725 414.651 10.4222 429.978 25.2295C453.141 47.606 472.464 52.9233 504.462 48.5468C518.156 46.6718 533.518 41.1204 547.308 42.8826C559.219 44.4022 571.491 52.1019 582.911 55.2138C599.196 59.653 616.98 55.0259 633.338 51.9975C662.778 46.5439 718.54 35.6239 739.15 13.06C752.212 -1.24324 763.783 -54.9516 786.578 -17.3671C791.827 -8.7131 798.53 6.32281 801.077 16.1057C808.283 43.7822 796.216 65.189 810.372 95.1749C835.156 147.685 893.951 121.879 935.857 115.637C956.718 112.528 964.744 112.892 985.257 117.751C1035.95 129.759 1082.94 152.985 1135.79 135.534C1153.78 129.594 1161.22 119.144 1176.13 111.08C1180.98 108.462 1189.85 103.864 1193.48 110.441C1200.15 122.548 1177.5 131.245 1175.63 138.711C1173.07 148.935 1181.69 158.134 1173.5 169.439C1167.64 177.529 1159.34 185.515 1153.07 194.273C1118.36 242.805 1096.98 303.23 1083.72 361.564C1065.64 441.095 1071.76 491.916 1137.79 542.393C1201.68 591.243 1281.15 606.713 1359.54 610.831C1418.67 613.935 1459.58 610.311 1515.13 589.667C1561.62 572.391 1648.01 527.664 1664.04 476.893C1671.99 451.686 1673.42 431.204 1706.07 430.9C1736.63 430.614 1741.94 439.073 1768.6 418.104C1786.54 403.986 1803.2 387.197 1820.67 372.387C1829.16 365.188 1840.86 359.558 1844.77 349.073C1848.25 339.753 1848.82 314.29 1861.01 333.846C1861.64 334.063 1861.54 335.014 1860.97 335.415C1861.52 336.187 1861.5 337.003 1860.91 337.768C1859.66 336.749 1854.63 326.716 1852.67 328.131C1848.59 337.113 1848.69 349.947 1842.29 357.693C1838.58 362.186 1829.49 367.508 1824.54 371.709C1807.49 386.189 1766 428.314 1747.19 433.047C1715.32 441.07 1683.97 416.253 1669.65 461.978C1665.97 473.706 1665.29 481.805 1658.76 492.99C1623.69 552.962 1508.96 600.952 1443.37 611.11C1407.79 616.62 1367.76 613.7 1331.78 610.846C1260.06 605.16 1185.97 584.923 1129.39 538.263C1065.08 485.234 1064.82 430.177 1084.08 352.307C1100.26 286.852 1122.5 228.656 1164.52 175.954C1171.21 167.561 1175.6 167.733 1175.09 154.998C1174.71 145.76 1169.84 141.559 1177.16 133.132C1181.03 128.674 1193.67 121.17 1192.73 114.26C1191.41 104.596 1179.02 111.565 1174.59 114.281C1161.59 122.251 1154.99 130.596 1139.43 136.236C1086.89 155.289 1040.42 133.384 989.958 120.875C978.977 118.152 966.91 114.658 955.582 115.03C909.485 116.533 840.168 155.277 810.271 99.1052C799.262 78.4196 800.978 64.4528 801.762 42.23C802.466 22.1482 796.005 2.64024 786.033 -14.536C774.15 -35.0054 767.584 -32.4099 756.41 -13.5344C751.476 -5.19594 748.031 5.54534 741.888 12.7878C721.684 36.5872 668.433 47.1857 638.715 52.9381C621.989 56.1765 601.786 61.3276 585.161 57.6408C562.19 52.5439 555.782 41.8532 528.949 45.7829C488.987 51.6342 465.815 60.6114 432.17 30.0101C415.7 15.0309 355.547 -67.028 340.937 -83.7787L338.296 -93.0645L346.571 -80.7962Z" fill="#DDE4EE"/>
<path d="M415.178 -183.804L417.882 -180.513C426.324 -155.708 440.64 -133.756 454.932 -112.119C468.956 -90.8848 485.86 -66.9366 508.388 -54.6783C533.946 -40.7731 553.85 -43.8082 580.693 -48.8163C597.989 -51.3482 611.939 -44.4958 626.236 -36.0525C655.826 -31.3406 692.275 -33.4584 711.971 -60.1523C727.906 -81.633 739.839 -105.403 747.763 -131.462C759.639 -166.716 802.128 -142.307 819.714 -124.993C826.617 -113.702 831.733 -101.242 835.062 -87.6056C838.84 -72.8817 848.25 -66.7668 860.157 -59.7689C864.504 -56.8427 867.454 -52.4154 869.545 -47.6108L877.087 -27.1624C886.483 -6.8607 900.554 6.81583 922.984 9.13456C963.323 14.0436 1003.27 25.4766 1042.26 37.3705C1079.8 47.7461 1120.5 46.5544 1154 24.9862C1167.05 16.2655 1180.6 8.73965 1194.67 2.4126C1207.84 -0.311955 1221.31 -0.893548 1235.09 0.663958C1266.9 3.0686 1285.5 -20.6483 1302.47 -44.2362C1311.25 -59.3935 1335.47 -62.7998 1332.84 -39.8135C1330.91 -29.8968 1330.25 -22.4656 1332.64 -12.2256C1337.45 -0.884528 1339.5 10.5201 1338.79 21.9923C1334.12 33.9 1328.71 45.5249 1322.55 56.863C1314.24 77.4918 1318.4 93.2541 1323.77 113.546C1325.09 123.048 1322.62 126.455 1316.25 133.164C1275.45 168.093 1236.67 209.343 1220.16 262.856C1211.37 291.364 1204.49 341.21 1216.57 369.008C1237.95 418.225 1314.02 432.025 1361.35 434.939C1418.71 438.47 1494.1 438.002 1545.23 408.962C1568.73 395.611 1577.57 380.781 1588.27 356.778C1600.64 333.236 1623.73 319.152 1649.15 314.675C1689.24 308.134 1733.17 297.394 1768.01 275.402C1779.66 268.049 1784.02 261.647 1790.36 250.592C1798.57 246.126 1807.65 243.08 1817.59 241.45C1821.24 240.272 1824.89 239.032 1824.93 234.59C1824.79 224.74 1825.57 214.945 1827.29 205.203C1835.4 180.178 1851.4 204.42 1857.54 216.483C1860.24 219.448 1862.31 222.647 1863.74 226.076L1863.72 226.86C1863.66 229.468 1863.59 232.096 1863.53 234.7C1853.19 227.332 1848.51 213.84 1841.12 204.663C1840.37 203.732 1838.08 201.611 1836.98 201.84C1832.6 202.743 1833.26 234.059 1831.55 239.524C1827.26 253.188 1799.34 249.101 1793.9 258.01C1792.89 259.674 1792.73 261.848 1791.63 263.636C1777.07 287.339 1720.23 306.714 1694.01 313.736C1658.83 323.156 1627.68 318.434 1601.69 350.191C1587.3 367.769 1585.83 387.434 1567.9 402.582C1526.98 437.17 1455.36 444.273 1403.95 444.504C1335.51 444.813 1205.98 433.284 1203.01 340.617C1200.26 254.666 1233.66 199.337 1293.18 143.32C1298.47 138.34 1314.95 126.281 1316.39 119.844C1317.55 114.663 1313.43 104.467 1312.34 98.8378C1307.13 71.7525 1313.27 56.0418 1325.26 32.7603C1331.1 21.4059 1334.04 20.3583 1330.55 6.24649C1327.54 -5.94924 1321.97 -13.531 1323.29 -27.2906C1323.65 -31.0603 1327.7 -45.7201 1324.45 -47.9575C1323.43 -48.6598 1317.79 -48.3006 1316.4 -47.541C1309.87 -43.9637 1297.59 -23.967 1291.39 -17.1511C1281.81 -6.63029 1267.78 3.82606 1253.87 7.09999C1235.39 11.4488 1215.92 4.20927 1197.89 9.19005C1188.84 11.6913 1177.26 21.1107 1168.53 26.0732C1140.68 41.8823 1121.44 50.9123 1088.5 51.5463C1047.46 52.3365 1009.46 34.0326 969.877 25.2154C950.599 20.9206 930.891 19.1613 911.989 15.2611C891.538 11.0409 874.563 -10.8332 867.369 -29.6985C864.111 -38.247 864.308 -46.8756 856.522 -52.9118C847.672 -59.7731 841.485 -59.6756 834.605 -70.7933C819.902 -94.5532 828.083 -115.029 799.229 -131.565C787.805 -138.114 769.253 -148.033 758.777 -136.171C751.489 -127.916 744.122 -99.2718 738.011 -86.7551C715.101 -39.8416 688.688 -23.951 636.525 -26.7391C621.225 -27.5564 618.229 -33.4409 605.805 -38.2667C581.52 -47.6993 560.659 -34.2151 537.134 -37.0498C492.572 -42.425 466.422 -80.27 443.742 -115.31C430.205 -136.225 415.263 -159.697 409.005 -183.969C411.059 -183.922 413.124 -183.855 415.178 -183.804Z" fill="#DDE4EE"/>
<path d="M1447.04 -195.698C1428.74 -179.528 1418.4 -152.46 1413 -128.761C1406.84 -101.793 1406.61 -55.5818 1410.76 -28.2612C1414.3 -4.98219 1443.31 28.546 1463.12 39.9563C1483.06 51.4381 1534.65 59.9041 1557.78 59.4315C1592.32 58.7207 1630.59 38.5084 1641.4 3.44649C1652.43 -32.355 1634.97 -62.572 1676.27 -80.9379C1702.52 -92.6062 1736.07 -87.7496 1762.4 -78.07C1779.35 -71.8379 1793.58 -60.3315 1809.57 -52.1866C1809.58 -51.9232 1809.6 -51.6638 1809.62 -51.4005C1809.74 -49.3095 1809.87 -47.2068 1809.99 -45.1159C1804.98 -45.449 1800.08 -47.4853 1795.3 -51.2251C1771.13 -68.358 1744.51 -79.3061 1714.89 -79.9606C1687.07 -80.575 1654.14 -70.5423 1654.17 -37.6678C1654.67 8.93655 1637.98 46.2823 1591.46 60.4892C1555.97 71.3332 1503.83 65.7413 1469.59 51.7077C1441.4 40.1532 1407.01 1.17884 1402.92 -30.0278C1398.19 -66.2007 1399.05 -113.279 1410.45 -147.954C1414.68 -160.84 1424.32 -183.807 1433.57 -193.207C1434.51 -194.16 1435.8 -194.641 1437.02 -195.087L1437.79 -195.134C1440.86 -195.321 1443.96 -195.51 1447.03 -195.697L1447.04 -195.698Z" fill="#DDE4EE"/>
<path d="M1532.52 -200.909C1530.84 -187.842 1519.63 -180.282 1507.82 -177.537C1499.6 -175.627 1493.28 -176.918 1484.87 -173.769C1458.1 -163.76 1443.07 -132.48 1441.04 -104.901C1439 -77.2739 1446.73 -24.5314 1466.34 -4.02885C1494.23 25.1258 1569.66 21.3399 1597.15 -6.83802C1613.6 -23.6977 1611.45 -42.8551 1619.49 -63.1828C1644.82 -127.186 1708.29 -124.632 1762.98 -103.883C1778.11 -98.1388 1792.93 -91.014 1807.67 -84.3823C1807.72 -83.5961 1807.77 -82.81 1807.82 -82.0238C1778.79 -94.5701 1749.72 -109.505 1717.98 -113.368C1679.71 -118.024 1646.84 -110.069 1627.15 -74.0896C1609.4 -41.6451 1619.94 -11.0296 1579.85 7.9943C1544.84 24.6141 1477.57 24.6156 1455.74 -14.4921C1433.9 -53.6187 1428.97 -131.154 1464.86 -163.62C1478.22 -175.711 1484.34 -176.172 1501.06 -178.427C1513.85 -180.154 1527.97 -186.432 1530.22 -200.761C1530.99 -200.808 1531.76 -200.855 1532.53 -200.902L1532.52 -200.909Z" fill="#DDE4EE"/>
<path d="M1405.07 -158.12C1400.98 -147.385 1396.26 -136.871 1391.29 -126.532C1377.49 -97.7784 1356.74 -73.0374 1363.26 -39.1776C1364.84 -30.9624 1370.82 -18.5628 1370.56 -10.9942C1370.14 1.31249 1360.95 24.1114 1358 37.663C1355.3 50.0935 1351.64 67.0524 1353.82 79.5388C1357.6 101.227 1381.4 107.216 1359.32 131.744C1330.58 163.674 1288.09 183.115 1268.27 225.24C1252.53 258.676 1246.26 309.219 1253.83 345.492C1261.05 380.062 1320.52 385.375 1348.72 387.182C1395.57 390.189 1478.91 390.91 1521.21 370.33C1544.43 359.03 1539.57 349.454 1550.49 329.958C1574.69 286.752 1628.31 270.336 1672.73 258.563C1697.56 251.978 1756.1 242.382 1772.26 223.306C1776.91 217.819 1779.42 206.342 1784.34 203.189C1791.94 198.308 1803.49 207.804 1808.71 194.635C1815.05 178.663 1807.44 158.381 1807.06 142.167C1806.96 137.626 1807.9 129.659 1813.93 130.076C1824.32 130.794 1840.24 157.519 1847.05 165.603C1852.44 172.002 1858.96 177.379 1864.78 183.35L1864.76 184.135C1864.74 184.92 1864.72 185.706 1864.7 186.491C1857.71 179.758 1850.14 173.072 1843.97 165.52C1836.05 155.839 1830.07 144.41 1820.37 136.197C1811.75 128.89 1809.09 132.893 1809.35 143.014C1809.78 159.171 1817.77 181.396 1810.16 196.996C1803.8 210.028 1792.87 200.525 1785.47 205.215C1781.6 207.673 1779.7 216.055 1777.49 220.039C1764.58 243.273 1702.93 252.99 1678.11 259.497C1629.81 272.164 1570.99 288.798 1548.49 339.103C1541.46 354.836 1543.05 360.82 1526.39 370.24C1484.52 393.933 1394.59 392.052 1347.16 388.689C1317.21 386.563 1259.05 382.779 1251.52 345.43C1243.71 306.711 1251.1 248.261 1271.67 214.376C1289.19 185.513 1318.08 165.603 1342.79 143.864C1349.51 137.945 1366.52 123.984 1366.59 114.721C1366.66 104.711 1357.15 96.2566 1353.84 87.1779C1348.15 71.5837 1352.4 53.5168 1355.8 37.7339C1358.77 23.998 1367.77 1.43389 1368.28 -11.016C1368.6 -18.9366 1362.04 -31.6701 1360.68 -40.5157C1355.29 -75.7048 1377.2 -102.049 1391.43 -132.022C1395.49 -140.589 1399.31 -149.327 1402.75 -158.174L1405.07 -158.112L1405.07 -158.12Z" fill="#DDE4EE"/>
<path d="M1433.68 -157.482C1423.87 -140.393 1421.47 -121.609 1416.51 -102.952C1412.21 -86.7296 1405.56 -70.3178 1404.05 -53.4506C1402.95 -41.1451 1404.75 -28.4634 1403.98 -16.4669C1402.12 12.7888 1373.6 55.2063 1394.15 82.5988C1401.85 92.8495 1418.3 95.3875 1421.94 105.557C1425.68 115.989 1416.56 120.172 1411.35 127.571C1392 155.063 1419.7 180.384 1444.46 188.785C1478.41 200.308 1532.7 200.61 1568.86 201.118C1607.18 201.652 1650.7 202.004 1687.86 191.543C1712.21 184.684 1713.05 165.041 1731.3 155.873C1739.9 151.554 1752.36 150.124 1756.53 140.179C1761.41 128.524 1765.31 105.675 1765.84 92.9577C1766.4 79.6476 1761.11 72.4075 1777.21 68.8708C1810.22 61.6224 1813.93 81.6698 1837.57 95.6431C1846.09 100.683 1856.98 104.852 1866.67 106.223C1866.65 107.008 1866.63 107.794 1866.61 108.579C1849.83 106.208 1835.5 97.8035 1822.42 87.2868C1813.93 80.4639 1806.96 71.242 1795.35 69.7645C1790.33 69.1276 1772.62 70.4646 1769.47 74.2773C1766.26 78.159 1767.65 96.8402 1767.1 103.162C1766.36 111.694 1760.82 140.702 1755.57 146.403C1747.64 155.006 1732.33 154.966 1722.34 165.611C1709.81 178.959 1707.91 188.301 1688.41 193.742C1638.38 207.704 1570.38 204.777 1518.67 201.386C1487.49 199.337 1443.29 198.504 1418.9 176.693C1403.17 162.629 1395.74 145.857 1409.06 126.724C1415.61 117.307 1428.75 111.106 1414.47 99.7594C1403.95 91.4131 1394.59 92.5099 1388.13 76.93C1378.29 53.1908 1391.21 26.5684 1397.81 4.31393C1404.82 -19.3357 1399.13 -41.6558 1403.86 -65.7398C1406.5 -79.1709 1411.48 -92.8302 1415.05 -106.13C1419.78 -123.717 1421.83 -141.493 1431.37 -157.54L1433.69 -157.478L1433.68 -157.482Z" fill="#DDE4EE"/>
<path d="M1460.72 -156.798C1456.15 -139.716 1449.19 -123.294 1444.25 -106.359C1436.6 -80.1286 1438.65 -59.3026 1436.03 -32.9881C1432.57 1.95299 1420.75 23.2526 1438.03 57.7983C1447.98 77.6769 1478.18 121.634 1497.34 131.527C1504.97 135.467 1515.75 137.75 1524.2 139.296C1560.16 145.884 1615.35 154.765 1650.22 145.528C1690.14 134.954 1729.67 93.3101 1735.18 51.1963C1736.18 43.5477 1734.08 33.5379 1741.36 28.0057C1752.8 19.3166 1789.53 27.4291 1803.03 31.6475C1825.98 38.8253 1844.22 54.7584 1867.82 59.8598C1867.8 60.6449 1867.78 61.43 1867.76 62.2151C1844.15 57.1956 1825.9 41.2271 1802.97 34.0028C1789.09 29.6287 1763.47 24.0331 1749.49 27.0489C1734.43 30.299 1738.5 45.5621 1736.48 57.4295C1731.27 88.0777 1702.12 122.776 1675.84 137.517C1645.78 154.373 1613.45 153.441 1580.22 149.547C1558.63 147.017 1515.67 142.902 1497.3 133.867C1475.92 123.361 1441.48 73.5122 1432.29 51.0926C1420.49 22.3226 1430.68 -2.77178 1433.68 -31.476C1435.65 -50.3758 1434.42 -69.7306 1437.52 -88.5925C1441.28 -111.561 1452.89 -134.178 1458.4 -156.856L1460.72 -156.794L1460.72 -156.798Z" fill="#DDE4EE"/>
<path d="M785.393 -154.833C785.651 -154.849 785.906 -154.864 786.164 -154.88C792.221 -148.737 800.38 -141.329 808.301 -137.935C817.056 -134.184 826.121 -137.115 827.482 -123.865C828.645 -112.554 823.268 -102.637 829.008 -91.1513C835.987 -77.19 864.596 -42.2477 876.959 -32.8923C888.062 -24.4869 892.266 -26.7893 904.684 -24.4948C951.298 -15.8804 1019.26 5.16206 1063.59 -18.7486C1070.35 -22.4003 1081.61 -33.4074 1089.07 -32.7965C1090.97 -32.6402 1092.4 -31.1907 1094.05 -30.9366C1099.73 -30.0588 1105.27 -35.875 1110.69 -37.8685C1128.32 -44.3597 1147.95 -37.0043 1165.89 -39.9838C1207.84 -46.9449 1216.15 -76.2348 1235.07 -108.317C1240.36 -117.302 1247.44 -125.992 1252.18 -135.235C1259.93 -150.348 1264.65 -168.752 1271.3 -184.506L1273.62 -184.647C1266.85 -168.033 1261.59 -148.436 1253.42 -132.621C1249.48 -125.007 1243.29 -117.599 1238.82 -110.123C1221.62 -81.3517 1214.92 -54.6675 1180.75 -42.1588C1156.36 -33.2285 1142.22 -41.0775 1119.72 -37.8787C1110.74 -36.6037 1099.89 -27.3595 1093.41 -28.5119C1091.98 -28.7644 1091.01 -30.0716 1089.87 -30.3177C1083.34 -31.7238 1074.14 -22.679 1068.7 -19.3216C1023.2 8.75677 951.849 -13.3469 902.952 -22.4973C898.346 -23.3574 893.132 -23.1259 888.902 -23.9576C875.286 -26.6331 855.826 -50.6851 847.237 -61.7045C841.259 -69.3724 825.735 -88.9176 824.39 -97.6029C822.974 -106.746 828.087 -123.764 822.758 -130.216C819.689 -133.93 814.87 -133.249 810.57 -134.665C799.667 -138.256 790.947 -147.408 782.308 -154.645L785.39 -154.833L785.393 -154.833Z" fill="#DDE4EE"/>
<path d="M1404.83 275.038C1391.55 261.756 1352.72 254.004 1350.94 281.055C1349.48 303.249 1384.91 308.506 1400.62 304.409C1402.65 303.878 1406.72 302.223 1408.16 300.8C1414.86 294.157 1410.79 281.011 1404.83 275.038ZM1400.66 302.041C1389.13 305.35 1369.59 303.052 1359.94 295.402C1348.16 286.06 1351.96 267.472 1367.39 265.622C1379.17 264.213 1394.53 268.124 1403.2 276.609C1410.93 284.177 1412.94 298.513 1400.66 302.041ZM1404.83 275.038C1391.55 261.756 1352.72 254.004 1350.94 281.055C1349.48 303.249 1384.91 308.506 1400.62 304.409C1402.65 303.878 1406.72 302.223 1408.16 300.8C1414.86 294.157 1410.79 281.011 1404.83 275.038ZM1400.66 302.041C1389.13 305.35 1369.59 303.052 1359.94 295.402C1348.16 286.06 1351.96 267.472 1367.39 265.622C1379.17 264.213 1394.53 268.124 1403.2 276.609C1410.93 284.177 1412.94 298.513 1400.66 302.041ZM1493.67 237.495C1469.92 233.466 1442.01 233.088 1420.67 221.424C1397.78 208.914 1372.45 182.826 1344.64 185.688C1302.79 190 1271.94 268.662 1276.31 305.69C1282.05 354.37 1342.75 364.326 1381.79 362.393C1409.45 361.024 1465.3 353.759 1488.49 339.665C1508.43 327.55 1525.87 298.718 1531.33 275.964C1539.51 241.852 1519.63 241.894 1493.67 237.495ZM1523.32 291.556C1500.96 344.001 1469.4 348.656 1418.01 356.056C1376.79 361.988 1315.41 366.493 1286.85 328.456C1265.58 300.128 1287.46 241.039 1306.39 215.633C1314.47 204.787 1329.93 189.56 1343.82 188.026C1373.77 184.719 1399.66 214.385 1425.18 226.263C1453.2 239.299 1491.91 234.592 1519.89 245.114C1538.48 252.108 1529.02 278.177 1523.32 291.556ZM1445.95 262.131C1416.12 254.176 1385.43 220.36 1355.4 221.324C1332.62 222.054 1309.31 251.613 1307.11 273.594C1300.89 335.529 1370.37 333.865 1412.62 329.343C1433.99 327.059 1474.9 316.287 1479.54 290.612C1483.85 266.779 1461.27 266.214 1445.95 262.131ZM1467.9 299.897C1450.47 320.98 1412.85 324.502 1387.39 324.885C1350.47 325.445 1307.65 321.333 1313.36 272.229C1315.4 254.737 1335.98 229.422 1353.65 227.558C1378.2 224.97 1406.22 252.45 1427.17 261.888C1439.41 267.4 1450.33 267.897 1462.15 271.764C1476.61 276.491 1476.76 289.175 1467.9 299.897ZM1404.83 275.038C1391.55 261.756 1352.72 254.004 1350.94 281.055C1349.48 303.249 1384.91 308.506 1400.62 304.409C1402.65 303.878 1406.72 302.223 1408.16 300.8C1414.86 294.157 1410.79 281.011 1404.83 275.038ZM1400.66 302.041C1389.13 305.35 1369.59 303.052 1359.94 295.402C1348.16 286.06 1351.96 267.472 1367.39 265.622C1379.17 264.213 1394.53 268.124 1403.2 276.609C1410.93 284.177 1412.94 298.513 1400.66 302.041Z" fill="#DDE4EE"/>
</g>
</g>
<defs>
<clipPath id="clip0_248_36396">
<rect width="1440" height="1024" fill="white"/>
</clipPath>
</defs>
</svg>
