<svg width="24" height="24" viewBox="0 0 24 24" fill="none" xmlns="http://www.w3.org/2000/svg">
<path d="M20.5662 5.47827L16.5662 1.2475C16.4918 1.16895 16.4036 1.10666 16.3065 1.06419C16.2094 1.02173 16.1053 0.999913 16.0002 1H8.0002C7.57585 1 7.16888 1.1783 6.86882 1.49567C6.56877 1.81303 6.4002 2.24348 6.4002 2.69231V4.38462H4.8002C4.37585 4.38462 3.96888 4.56291 3.66882 4.88028C3.36877 5.19765 3.2002 5.6281 3.2002 6.07692V21.3077C3.2002 21.7565 3.36877 22.187 3.66882 22.5043C3.96888 22.8217 4.37585 23 4.8002 23H16.0002C16.4245 23 16.8315 22.8217 17.1316 22.5043C17.4316 22.187 17.6002 21.7565 17.6002 21.3077V19.6154H19.2002C19.6245 19.6154 20.0315 19.4371 20.3316 19.1197C20.6316 18.8023 20.8002 18.3719 20.8002 17.9231V6.07692C20.8003 5.96577 20.7797 5.85569 20.7395 5.75297C20.6994 5.65025 20.6405 5.55691 20.5662 5.47827ZM12.8002 18.7692H8.0002C7.78802 18.7692 7.58454 18.6801 7.43451 18.5214C7.28448 18.3627 7.2002 18.1475 7.2002 17.9231C7.2002 17.6987 7.28448 17.4834 7.43451 17.3248C7.58454 17.1661 7.78802 17.0769 8.0002 17.0769H12.8002C13.0124 17.0769 13.2159 17.1661 13.3659 17.3248C13.5159 17.4834 13.6002 17.6987 13.6002 17.9231C13.6002 18.1475 13.5159 18.3627 13.3659 18.5214C13.2159 18.6801 13.0124 18.7692 12.8002 18.7692ZM12.8002 15.3846H8.0002C7.78802 15.3846 7.58454 15.2955 7.43451 15.1368C7.28448 14.9781 7.2002 14.7629 7.2002 14.5385C7.2002 14.314 7.28448 14.0988 7.43451 13.9401C7.58454 13.7815 7.78802 13.6923 8.0002 13.6923H12.8002C13.0124 13.6923 13.2159 13.7815 13.3659 13.9401C13.5159 14.0988 13.6002 14.314 13.6002 14.5385C13.6002 14.7629 13.5159 14.9781 13.3659 15.1368C13.2159 15.2955 13.0124 15.3846 12.8002 15.3846ZM19.2002 17.9231H17.6002V9.46154C17.6003 9.35039 17.5797 9.24031 17.5395 9.13759C17.4994 9.03487 17.4405 8.94152 17.3662 8.86288L13.3662 4.63212C13.2918 4.55356 13.2036 4.49127 13.1065 4.44881C13.0094 4.40634 12.9053 4.38453 12.8002 4.38462H8.0002V2.69231H15.6692L19.2002 6.42702V17.9231Z" fill="white"/>
</svg>
