<svg width="24" height="24" viewBox="0 0 24 24" fill="none" xmlns="http://www.w3.org/2000/svg">
<path d="M10.625 20C10.625 20 9.25 20 9.25 18.6667C9.25 17.3333 10.625 13.3333 16.125 13.3333C21.625 13.3333 23 17.3333 23 18.6667C23 20 21.625 20 21.625 20H10.625ZM16.125 12C17.219 12 18.2682 11.5786 19.0418 10.8284C19.8154 10.0783 20.25 9.06087 20.25 8C20.25 6.93913 19.8154 5.92172 19.0418 5.17157C18.2682 4.42143 17.219 4 16.125 4C15.031 4 13.9818 4.42143 13.2082 5.17157C12.4346 5.92172 12 6.93913 12 8C12 9.06087 12.4346 10.0783 13.2082 10.8284C13.9818 11.5786 15.031 12 16.125 12ZM8.172 20C7.96826 19.5837 7.86661 19.1274 7.875 18.6667C7.875 16.86 8.81 15 10.537 13.7067C9.67512 13.4486 8.77697 13.3226 7.875 13.3333C2.375 13.3333 1 17.3333 1 18.6667C1 20 2.375 20 2.375 20H8.172ZM7.1875 12C8.09918 12 8.97352 11.6488 9.61818 11.0237C10.2628 10.3986 10.625 9.55072 10.625 8.66667C10.625 7.78261 10.2628 6.93477 9.61818 6.30964C8.97352 5.68452 8.09918 5.33333 7.1875 5.33333C6.27582 5.33333 5.40148 5.68452 4.75682 6.30964C4.11216 6.93477 3.75 7.78261 3.75 8.66667C3.75 9.55072 4.11216 10.3986 4.75682 11.0237C5.40148 11.6488 6.27582 12 7.1875 12Z" fill="white"/>
</svg>
