<svg width="33" height="33" viewBox="0 0 33 33" fill="none" xmlns="http://www.w3.org/2000/svg">
<circle cx="16" cy="16" r="16" fill="#DCE4FF"/>
<path d="M10.8065 21L11.6185 11.06H13.5505L15.4965 15.974C15.7205 16.562 16.0005 17.43 16.0005 17.43H16.0285C16.0285 17.43 16.2945 16.562 16.5185 15.974L18.4645 11.06H20.3965L21.1945 21H19.4025L18.9825 15.442C18.9405 14.784 18.9685 13.902 18.9685 13.902H18.9405C18.9405 13.902 18.6465 14.868 18.4085 15.442L16.7985 19.292H15.2165L13.6205 15.442C13.3825 14.868 13.0745 13.888 13.0745 13.888H13.0465C13.0465 13.888 13.0745 14.784 13.0325 15.442L12.6125 21H10.8065Z" fill="#333333"/>
<circle cx="27" cy="27" r="6" fill="white"/>
<path d="M27 32C29.7614 32 32 29.7614 32 27C32 24.2386 29.7614 22 27 22C24.2386 22 22 24.2386 22 27C22 29.7614 24.2386 32 27 32ZM29.0833 26.231L26.8333 28.481C26.6381 28.6763 26.3215 28.6763 26.1262 28.481L25.1262 27.481C24.931 27.2857 24.931 26.9692 25.1262 26.7739C25.3215 26.5786 25.6381 26.5786 25.8333 26.7739L26.4798 27.4203L28.3762 25.5239C28.5715 25.3286 28.8881 25.3286 29.0833 25.5239C29.2786 25.7191 29.2786 26.0357 29.0833 26.231Z" fill="#00990F"/>
</svg>
