<svg width="24" height="24" viewBox="0 0 24 24" fill="none" xmlns="http://www.w3.org/2000/svg">
<path d="M21.4711 15.5034L19.3044 7.69423C18.8417 6.02375 17.8336 4.55602 16.4405 3.52464C15.0473 2.49326 13.3492 1.9575 11.6164 2.00264C9.88366 2.04777 8.21576 2.6712 6.8782 3.7737C5.54065 4.87621 4.61029 6.39443 4.23522 8.08673L2.55939 15.6284C2.4783 15.9938 2.48027 16.3727 2.56517 16.7372C2.65007 17.1017 2.81573 17.4425 3.04991 17.7344C3.2841 18.0263 3.58085 18.262 3.91826 18.4239C4.25566 18.5859 4.62513 18.67 4.99939 18.6701H8.00522C8.19648 19.612 8.70749 20.4588 9.45167 21.067C10.1958 21.6753 11.1274 22.0076 12.0886 22.0076C13.0497 22.0076 13.9813 21.6753 14.7254 21.067C15.4696 20.4588 15.9806 19.612 16.1719 18.6701H19.0636C19.4486 18.6699 19.8285 18.5808 20.1735 18.4096C20.5184 18.2385 20.8192 17.99 21.0523 17.6834C21.2854 17.3769 21.4446 17.0207 21.5174 16.6425C21.5901 16.2644 21.5746 15.8745 21.4719 15.5034H21.4711ZM12.0886 20.3367C11.5733 20.3346 11.0714 20.1733 10.6513 19.875C10.2312 19.5767 9.91362 19.1558 9.74189 18.6701H14.4352C14.2635 19.1558 13.9459 19.5767 13.5258 19.875C13.1057 20.1733 12.6038 20.3346 12.0886 20.3367ZM19.7261 16.6742C19.6483 16.7773 19.5475 16.8608 19.4318 16.9179C19.316 16.9751 19.1885 17.0043 19.0594 17.0034H4.99939C4.8746 17.0034 4.75142 16.9753 4.63892 16.9213C4.52643 16.8673 4.4275 16.7888 4.34943 16.6914C4.27136 16.5941 4.21615 16.4804 4.18788 16.3589C4.1596 16.2374 4.15897 16.111 4.18605 15.9892L5.86189 8.44757C6.15718 7.1194 6.88798 5.92807 7.9381 5.06294C8.98822 4.19781 10.2974 3.70854 11.6575 3.67291C13.0177 3.63728 14.3507 4.05733 15.4446 4.86629C16.5386 5.67525 17.3308 6.82669 17.6952 8.13757L19.8619 15.9467C19.8973 16.0702 19.9034 16.2002 19.8798 16.3265C19.8563 16.4528 19.8036 16.5718 19.7261 16.6742Z" fill="#3D3935"/>
<circle cx="17.5" cy="4.5" r="3" fill="#EC0000"/>
</svg>
