<svg width="24" height="24" viewBox="0 0 24 24" fill="none" xmlns="http://www.w3.org/2000/svg">
<path d="M12 0.879883C18.1413 0.879883 23.1201 5.85873 23.1201 12C23.1201 18.1413 18.1413 23.1201 12 23.1201C5.85873 23.1201 0.879883 18.1413 0.879883 12C0.879883 5.85873 5.85873 0.879883 12 0.879883ZM12 2.49512C6.75921 2.49512 2.49512 6.75921 2.49512 12C2.49512 17.2408 6.75921 21.5049 12 21.5049C17.2408 21.5049 21.5049 17.2408 21.5049 12C21.5049 6.75921 17.2408 2.49512 12 2.49512ZM11.8555 15.1904C12.1948 15.1904 12.4897 15.305 12.7393 15.5342C12.9885 15.7632 13.1132 16.0333 13.1133 16.3447C13.1133 16.6564 12.9888 16.9271 12.7393 17.1562C12.4897 17.3854 12.1948 17.5 11.8555 17.5C11.5163 17.4999 11.2221 17.3853 10.9727 17.1562C10.7231 16.9271 10.5986 16.6564 10.5986 16.3447C10.5987 16.0333 10.7234 15.7632 10.9727 15.5342C11.2221 15.3051 11.5163 15.1905 11.8555 15.1904ZM11.8555 6.5C12.7737 6.5 13.5779 6.76168 14.2666 7.28418C14.9549 7.80657 15.2987 8.48001 15.2988 9.30469C15.2988 9.76302 15.1743 10.1853 14.9248 10.5703C14.6753 10.9552 14.3812 11.3037 14.042 11.6152C13.8824 11.7618 13.7174 11.9081 13.5479 12.0547C13.3783 12.2013 13.2236 12.3666 13.084 12.5498C13.0042 12.6597 12.9442 12.7745 12.9043 12.8936C12.8644 13.0126 12.8344 13.1365 12.8145 13.2646C12.8145 13.4846 12.7189 13.6778 12.5293 13.8428C12.3397 14.0076 12.1251 14.0898 11.8857 14.0898C11.6264 14.0898 11.4118 14.0076 11.2422 13.8428C11.0725 13.6778 10.9873 13.4756 10.9873 13.2373C10.9873 13.054 11.0079 12.8708 11.0479 12.6875C11.0878 12.5042 11.1571 12.339 11.2568 12.1924C11.4165 11.954 11.6066 11.7384 11.8262 11.5459C12.0456 11.3535 12.265 11.1566 12.4844 10.9551C12.7438 10.7351 12.9789 10.4923 13.1885 10.2266C13.398 9.96083 13.5029 9.67188 13.5029 9.36035C13.5029 8.99368 13.3381 8.69048 13.0088 8.45215C12.6795 8.21386 12.2946 8.09473 11.8555 8.09473C11.5763 8.09478 11.3221 8.14542 11.0928 8.24609C10.8632 8.34693 10.6582 8.49853 10.4785 8.7002C10.319 8.86503 10.1295 8.99785 9.91016 9.09863C9.69058 9.19947 9.47055 9.20397 9.25098 9.1123C9.01159 9.02067 8.84667 8.87437 8.75684 8.67285C8.66701 8.47118 8.68199 8.26905 8.80176 8.06738C9.12113 7.5724 9.5509 7.1871 10.0898 6.91211C10.6285 6.63736 11.2171 6.50007 11.8555 6.5Z" fill="#3D3935"/>
</svg>
