<svg width="24" height="24" viewBox="0 0 24 24" fill="none" xmlns="http://www.w3.org/2000/svg">
<path d="M5.58984 16.1602C6.03981 16.1602 6.40974 16.3102 6.71973 16.6201C7.01973 16.9201 7.17969 17.3 7.17969 17.75C7.17968 18.2 7.02972 18.5699 6.71973 18.8799C6.40974 19.1898 6.0398 19.3398 5.58984 19.3398L5.58008 19.3301C5.13016 19.3301 4.76016 19.18 4.4502 18.8701C4.1402 18.5601 4 18.2 4 17.75C4 17.3 4.15002 16.9301 4.45996 16.6201C4.76993 16.3102 5.13991 16.1602 5.58984 16.1602ZM11.6699 16.1504C12.1199 16.1504 12.4898 16.3004 12.7998 16.6104C13.1097 16.9203 13.2598 17.2903 13.2598 17.7402C13.2597 18.1901 13.1097 18.5602 12.7998 18.8701C12.4898 19.18 12.1198 19.3301 11.6699 19.3301C11.22 19.3301 10.85 19.18 10.54 18.8701C10.2301 18.5602 10.0801 18.1901 10.0801 17.7402C10.0801 17.2903 10.2301 16.9203 10.54 16.6104C10.85 16.3004 11.22 16.1504 11.6699 16.1504ZM17.75 16.1504C18.2 16.1504 18.5699 16.3004 18.8799 16.6104C19.1898 16.9203 19.3398 17.2903 19.3398 17.7402C19.3398 18.1901 19.1898 18.5602 18.8799 18.8701C18.5699 19.18 18.1999 19.3301 17.75 19.3301C17.3001 19.3301 16.9301 19.18 16.6201 18.8701C16.3102 18.5602 16.1602 18.1901 16.1602 17.7402C16.1602 17.2903 16.3102 16.9203 16.6201 16.6104C16.9301 16.3004 17.3 16.1504 17.75 16.1504ZM5.58008 10.0703C6.03004 10.0703 6.39998 10.2203 6.70996 10.5303C7.00988 10.8303 7.16992 11.2102 7.16992 11.6602C7.16988 12.1101 7.01992 12.4801 6.70996 12.79C6.39999 13.1 6.03002 13.25 5.58008 13.25C5.13014 13.25 4.76017 13.0999 4.4502 12.79C4.15023 12.4901 3.99028 12.1101 3.99023 11.6602C3.99023 11.2102 4.14023 10.8403 4.4502 10.5303C4.7502 10.2303 5.13008 10.0703 5.58008 10.0703ZM11.6699 10.0703C12.1199 10.0703 12.4898 10.2203 12.7998 10.5303C13.1098 10.8403 13.2598 11.2102 13.2598 11.6602C13.2597 12.1101 13.1098 12.4801 12.7998 12.79C12.4898 13.1 12.1199 13.25 11.6699 13.25C11.22 13.25 10.85 13.1 10.54 12.79C10.2301 12.4801 10.0801 12.1101 10.0801 11.6602C10.0801 11.2102 10.2301 10.8402 10.54 10.5303C10.85 10.2203 11.22 10.0703 11.6699 10.0703ZM17.75 10.0703C18.2 10.0703 18.5699 10.2203 18.8799 10.5303C19.1898 10.8403 19.3398 11.2102 19.3398 11.6602C19.3398 12.1101 19.1898 12.4801 18.8799 12.79C18.5699 13.1 18.2 13.25 17.75 13.25C17.3 13.25 16.9301 13.1 16.6201 12.79C16.3102 12.4801 16.1602 12.1101 16.1602 11.6602C16.1602 11.2102 16.3102 10.8403 16.6201 10.5303C16.9301 10.2203 17.3 10.0703 17.75 10.0703ZM5.58984 4C6.03978 4 6.40976 4.15006 6.71973 4.45996C7.0197 4.75993 7.17966 5.1399 7.17969 5.58984C7.17969 6.03984 7.02973 6.40973 6.71973 6.71973C6.41973 7.01972 6.03984 7.17969 5.58984 7.17969L5.58008 7.16016C5.13018 7.16016 4.76015 7.01005 4.4502 6.7002C4.14022 6.39022 4.00002 6.03003 4 5.58008C4 5.13008 4.14996 4.75996 4.45996 4.45996C4.75993 4.15999 5.13991 4.00003 5.58984 4ZM17.75 4C18.2 4 18.5699 4.15001 18.8799 4.45996C19.1899 4.76993 19.3398 5.13991 19.3398 5.58984C19.3398 6.03981 19.1898 6.40974 18.8799 6.71973C18.5799 7.01972 18.2 7.17969 17.75 7.17969V7.16016C17.3001 7.16016 16.9301 7.01008 16.6201 6.7002C16.3102 6.39027 16.1602 6.02016 16.1602 5.57031C16.1602 5.12039 16.3102 4.7504 16.6201 4.44043C16.9301 4.13043 17.3 4 17.75 4ZM11.6699 3.98047C12.1199 3.98047 12.4898 4.13043 12.7998 4.44043C13.0997 4.74041 13.2598 5.12038 13.2598 5.57031C13.2597 6.02016 13.1097 6.39027 12.7998 6.7002C12.4998 7.00007 12.1198 7.16016 11.6699 7.16016C11.22 7.16014 10.85 7.01009 10.54 6.7002C10.2301 6.39027 10.0802 6.02016 10.0801 5.57031C10.0801 5.12041 10.2302 4.75039 10.54 4.44043C10.84 4.14044 11.22 3.98049 11.6699 3.98047Z" fill="#3D3935"/>
</svg>
