<svg width="24" height="24" viewBox="0 0 24 24" fill="none" xmlns="http://www.w3.org/2000/svg">
<circle cx="12" cy="12" r="12" fill="url(#paint0_radial_500_36974)"/>
<path d="M11.6582 5.85539C11.9925 5.85539 12.3221 5.88152 12.6436 5.93058C12.9974 5.98486 13.2063 6.34161 13.1172 6.6884C13.028 7.03506 12.6744 7.23938 12.3193 7.19426C12.1004 7.16637 11.8793 7.15205 11.6582 7.15226C10.6057 7.15247 9.5781 7.47334 8.71191 8.07121C7.84584 8.66903 7.18203 9.51605 6.80859 10.4999C6.43517 11.484 6.36955 12.5589 6.62109 13.581C6.87263 14.603 7.42934 15.5242 8.2168 16.2226C9.00428 16.9209 9.9855 17.3635 11.0303 17.4911C12.075 17.6187 13.1341 17.4257 14.0664 16.9374C14.9988 16.4491 15.7609 15.6883 16.251 14.7568C16.6399 14.0175 16.8431 13.198 16.8477 12.3691C16.8497 12.0108 17.0993 11.6877 17.4551 11.6454C17.8104 11.6032 18.1358 11.857 18.1426 12.2148C18.1434 12.2567 18.1436 12.2987 18.1436 12.3407C18.1436 15.9226 15.2401 18.8261 11.6582 18.8261C8.07646 18.826 5.17285 15.9225 5.17285 12.3407C5.17299 8.75908 8.07654 5.85551 11.6582 5.85539ZM12.752 14.3905H11.6328L11.3594 13.4618H9.97266L9.70508 14.3905H8.58594L10.0977 9.95109H11.2402L12.752 14.3905ZM14.3467 14.3905H13.2578V9.95109H14.3467V14.3905ZM10.6631 10.9628C10.6631 10.9628 10.5617 11.4448 10.4844 11.7245L10.2285 12.5878H11.1035L10.8535 11.7245C10.7702 11.4448 10.6748 10.9628 10.6748 10.9628H10.6631ZM16.2969 5.95402C16.3465 5.8231 16.5265 5.8231 16.5762 5.95402C16.8306 6.63992 17.4631 7.93017 18.7158 8.27922C18.8522 8.31665 18.8646 8.5096 18.7344 8.55949C18.0334 8.82133 16.9539 9.39516 16.5693 10.5361C16.5259 10.6668 16.3404 10.6668 16.2969 10.5361C15.9185 9.39516 14.8387 8.82133 14.1377 8.55949C14.0077 8.50953 14.0201 8.32297 14.1562 8.27922C15.4092 7.93012 16.0425 6.63985 16.2969 5.95402ZM14.6523 5.22648C14.6792 5.16405 14.7579 5.15598 14.7939 5.20304L14.8877 5.39054C14.9867 5.56214 15.1389 5.74532 15.3535 5.83683C15.4246 5.86756 15.4347 5.95874 15.3633 5.98918H15.3682C15.1689 6.07563 14.9232 6.22787 14.8057 6.49211C14.7801 6.55313 14.6889 6.55313 14.6582 6.49211C14.5355 6.22784 14.2899 6.07561 14.0957 5.98918C14.0243 5.95873 14.0343 5.86754 14.1055 5.83683C14.3967 5.71486 14.5654 5.42986 14.6523 5.22648Z" fill="white"/>
<defs>
<radialGradient id="paint0_radial_500_36974" cx="0" cy="0" r="1" gradientUnits="userSpaceOnUse" gradientTransform="translate(4.82143 8.7) rotate(88.3232) scale(18.3078 18.4151)">
<stop stop-color="#00A19C"/>
<stop offset="0.57" stop-color="#18668F"/>
<stop offset="1" stop-color="#54117E"/>
</radialGradient>
</defs>
</svg>
