<svg width="32" height="32" viewBox="0 0 32 32" fill="none" xmlns="http://www.w3.org/2000/svg">
<path d="M19.6226 21.2673C19.6226 24.5557 16.9584 27.2241 13.6658 27.2241C10.3732 27.2241 7.70898 24.5599 7.70898 21.2673C7.70898 17.9748 10.3732 15.3105 13.6658 15.3105C16.9584 15.3105 19.6226 17.979 19.6226 21.2673Z" fill="white"/>
<path d="M21.3237 13.0656L28.8682 0H17.2268C13.9804 0.0879696 13.13 0.724707 11.8942 2.8653C11.8942 2.8653 4.40841 15.8303 4.40422 15.8387C3.47426 17.4264 2.92969 19.2947 2.92969 21.2677C2.92969 25.1761 5.01582 28.5943 8.13665 30.471C9.74943 31.4429 11.6429 32 13.662 32C19.5895 32 24.3943 27.1952 24.3943 21.2677C24.3943 19.236 23.8288 17.3384 22.8485 15.7172L21.3195 13.0656H21.3237ZM17.2855 2.748H24.1094L19.7361 10.3218L18.2448 7.74133L15.4716 2.9407C15.8696 2.80246 16.4142 2.748 17.2813 2.748M13.6662 29.2688C11.7057 29.2688 9.90442 28.5608 8.51367 27.3879C6.77103 25.9217 5.66512 23.7267 5.66512 21.2677C5.66512 19.789 6.06308 18.4024 6.76265 17.2169C6.76265 17.2169 13.6368 5.31588 13.662 5.26561L16.3471 9.90287L20.5613 17.2043C20.5613 17.2043 20.5613 17.2085 20.5613 17.2127C21.2609 18.4024 21.663 19.7848 21.663 21.2635C21.663 25.6829 18.0814 29.2646 13.662 29.2646" fill="white"/>
</svg>
